<mxfile host="Electron" agent="Mozilla/5.0 (Windows NT 10.0; Win64; x64) AppleWebKit/537.36 (KHTML, like Gecko) draw.io/24.7.17 Chrome/128.0.6613.36 Electron/32.0.1 Safari/537.36" version="24.7.17">
  <diagram name="Page-1" id="y-wEWUi7gK6fYknjjCv2">
    <mxGraphModel dx="1036" dy="1754" grid="1" gridSize="10" guides="1" tooltips="1" connect="1" arrows="1" fold="1" page="1" pageScale="1" pageWidth="850" pageHeight="1100" math="0" shadow="0">
      <root>
        <mxCell id="0" />
        <mxCell id="1" parent="0" />
        <mxCell id="76Cl2MHU1IgZlay6GBI6-1" value="Khởi tạo j = 0" style="rounded=1;whiteSpace=wrap;html=1;" parent="1" vertex="1">
          <mxGeometry x="340" y="40" width="120" height="60" as="geometry" />
        </mxCell>
        <mxCell id="fykf_wIM20lNiPWr6jBC-1" value="j &amp;lt;= Trọng lượng balo" style="rhombus;whiteSpace=wrap;html=1;" vertex="1" parent="1">
          <mxGeometry x="355" y="160" width="90" height="80" as="geometry" />
        </mxCell>
        <mxCell id="fykf_wIM20lNiPWr6jBC-16" value="" style="edgeStyle=orthogonalEdgeStyle;rounded=0;orthogonalLoop=1;jettySize=auto;html=1;" edge="1" parent="1" source="fykf_wIM20lNiPWr6jBC-2" target="fykf_wIM20lNiPWr6jBC-3">
          <mxGeometry relative="1" as="geometry" />
        </mxCell>
        <mxCell id="fykf_wIM20lNiPWr6jBC-2" value="Khởi tạo j = 0" style="rounded=1;whiteSpace=wrap;html=1;" vertex="1" parent="1">
          <mxGeometry x="340" y="310" width="120" height="60" as="geometry" />
        </mxCell>
        <mxCell id="fykf_wIM20lNiPWr6jBC-18" value="" style="edgeStyle=orthogonalEdgeStyle;rounded=0;orthogonalLoop=1;jettySize=auto;html=1;" edge="1" parent="1" source="fykf_wIM20lNiPWr6jBC-3" target="fykf_wIM20lNiPWr6jBC-4">
          <mxGeometry relative="1" as="geometry" />
        </mxCell>
        <mxCell id="fykf_wIM20lNiPWr6jBC-19" value="" style="edgeStyle=orthogonalEdgeStyle;rounded=0;orthogonalLoop=1;jettySize=auto;html=1;" edge="1" parent="1" source="fykf_wIM20lNiPWr6jBC-3" target="fykf_wIM20lNiPWr6jBC-7">
          <mxGeometry relative="1" as="geometry" />
        </mxCell>
        <mxCell id="fykf_wIM20lNiPWr6jBC-3" value="i &amp;lt;= Số món đồ" style="rhombus;whiteSpace=wrap;html=1;" vertex="1" parent="1">
          <mxGeometry x="340" y="440" width="120" height="70" as="geometry" />
        </mxCell>
        <mxCell id="fykf_wIM20lNiPWr6jBC-20" value="" style="edgeStyle=orthogonalEdgeStyle;rounded=0;orthogonalLoop=1;jettySize=auto;html=1;" edge="1" parent="1" source="fykf_wIM20lNiPWr6jBC-4" target="fykf_wIM20lNiPWr6jBC-5">
          <mxGeometry relative="1" as="geometry" />
        </mxCell>
        <mxCell id="fykf_wIM20lNiPWr6jBC-4" value="Trọng lượng món đồ i &amp;lt; trọng lượng balo thứ j" style="rhombus;whiteSpace=wrap;html=1;" vertex="1" parent="1">
          <mxGeometry x="325" y="560" width="150" height="120" as="geometry" />
        </mxCell>
        <mxCell id="fykf_wIM20lNiPWr6jBC-21" value="" style="edgeStyle=orthogonalEdgeStyle;rounded=0;orthogonalLoop=1;jettySize=auto;html=1;" edge="1" parent="1" source="fykf_wIM20lNiPWr6jBC-5" target="fykf_wIM20lNiPWr6jBC-6">
          <mxGeometry relative="1" as="geometry" />
        </mxCell>
        <mxCell id="fykf_wIM20lNiPWr6jBC-5" value="Tính giá trị lớn nhất" style="shape=process;whiteSpace=wrap;html=1;backgroundOutline=1;" vertex="1" parent="1">
          <mxGeometry x="340" y="750" width="120" height="60" as="geometry" />
        </mxCell>
        <mxCell id="fykf_wIM20lNiPWr6jBC-6" value="Tăng i lên 1&lt;div&gt;Lưu chỉ số món đồ đã chọn cho trọng lượng j&lt;/div&gt;" style="rounded=0;whiteSpace=wrap;html=1;" vertex="1" parent="1">
          <mxGeometry x="80" y="590" width="160" height="60" as="geometry" />
        </mxCell>
        <mxCell id="fykf_wIM20lNiPWr6jBC-7" value="Tăng j lên 1" style="rounded=0;whiteSpace=wrap;html=1;" vertex="1" parent="1">
          <mxGeometry x="570" y="445" width="120" height="60" as="geometry" />
        </mxCell>
        <mxCell id="fykf_wIM20lNiPWr6jBC-8" value="" style="endArrow=classic;html=1;rounded=0;exitX=0.5;exitY=1;exitDx=0;exitDy=0;" edge="1" parent="1" source="76Cl2MHU1IgZlay6GBI6-1" target="fykf_wIM20lNiPWr6jBC-1">
          <mxGeometry width="50" height="50" relative="1" as="geometry">
            <mxPoint x="400" y="390" as="sourcePoint" />
            <mxPoint x="450" y="340" as="targetPoint" />
          </mxGeometry>
        </mxCell>
        <mxCell id="fykf_wIM20lNiPWr6jBC-15" value="" style="endArrow=classic;html=1;rounded=0;exitX=0.5;exitY=1;exitDx=0;exitDy=0;entryX=0.5;entryY=0;entryDx=0;entryDy=0;" edge="1" parent="1" source="fykf_wIM20lNiPWr6jBC-1" target="fykf_wIM20lNiPWr6jBC-2">
          <mxGeometry width="50" height="50" relative="1" as="geometry">
            <mxPoint x="400" y="390" as="sourcePoint" />
            <mxPoint x="450" y="340" as="targetPoint" />
          </mxGeometry>
        </mxCell>
        <mxCell id="fykf_wIM20lNiPWr6jBC-22" value="" style="endArrow=classic;html=1;rounded=0;exitX=0.5;exitY=0;exitDx=0;exitDy=0;entryX=1;entryY=0.5;entryDx=0;entryDy=0;" edge="1" parent="1" source="fykf_wIM20lNiPWr6jBC-7" target="fykf_wIM20lNiPWr6jBC-1">
          <mxGeometry width="50" height="50" relative="1" as="geometry">
            <mxPoint x="400" y="400" as="sourcePoint" />
            <mxPoint x="450" y="350" as="targetPoint" />
            <Array as="points">
              <mxPoint x="630" y="200" />
            </Array>
          </mxGeometry>
        </mxCell>
        <mxCell id="fykf_wIM20lNiPWr6jBC-23" value="Tìm giá trị lớn nhất" style="rounded=1;whiteSpace=wrap;html=1;" vertex="1" parent="1">
          <mxGeometry x="340" y="-80" width="120" height="60" as="geometry" />
        </mxCell>
        <mxCell id="fykf_wIM20lNiPWr6jBC-24" value="" style="endArrow=classic;html=1;rounded=0;exitX=0.5;exitY=1;exitDx=0;exitDy=0;entryX=0.5;entryY=0;entryDx=0;entryDy=0;" edge="1" parent="1" source="fykf_wIM20lNiPWr6jBC-23" target="76Cl2MHU1IgZlay6GBI6-1">
          <mxGeometry width="50" height="50" relative="1" as="geometry">
            <mxPoint x="400" y="160" as="sourcePoint" />
            <mxPoint x="450" y="110" as="targetPoint" />
          </mxGeometry>
        </mxCell>
        <mxCell id="fykf_wIM20lNiPWr6jBC-25" value="Truy vét món đồ" style="shape=process;whiteSpace=wrap;html=1;backgroundOutline=1;" vertex="1" parent="1">
          <mxGeometry x="100" y="170" width="120" height="60" as="geometry" />
        </mxCell>
        <mxCell id="fykf_wIM20lNiPWr6jBC-26" value="Trả về giá trị lớn nhất" style="rounded=1;whiteSpace=wrap;html=1;" vertex="1" parent="1">
          <mxGeometry x="100" y="310" width="120" height="60" as="geometry" />
        </mxCell>
        <mxCell id="fykf_wIM20lNiPWr6jBC-27" value="" style="endArrow=classic;html=1;rounded=0;exitX=0;exitY=0.5;exitDx=0;exitDy=0;entryX=1;entryY=0.5;entryDx=0;entryDy=0;" edge="1" parent="1" source="fykf_wIM20lNiPWr6jBC-1" target="fykf_wIM20lNiPWr6jBC-25">
          <mxGeometry width="50" height="50" relative="1" as="geometry">
            <mxPoint x="330" y="390" as="sourcePoint" />
            <mxPoint x="380" y="340" as="targetPoint" />
          </mxGeometry>
        </mxCell>
        <mxCell id="fykf_wIM20lNiPWr6jBC-28" value="" style="endArrow=classic;html=1;rounded=0;exitX=0.5;exitY=1;exitDx=0;exitDy=0;entryX=0.5;entryY=0;entryDx=0;entryDy=0;" edge="1" parent="1" source="fykf_wIM20lNiPWr6jBC-25" target="fykf_wIM20lNiPWr6jBC-26">
          <mxGeometry width="50" height="50" relative="1" as="geometry">
            <mxPoint x="330" y="390" as="sourcePoint" />
            <mxPoint x="380" y="340" as="targetPoint" />
          </mxGeometry>
        </mxCell>
        <mxCell id="fykf_wIM20lNiPWr6jBC-29" value="Đúng" style="text;html=1;align=center;verticalAlign=middle;resizable=0;points=[];autosize=1;strokeColor=none;fillColor=none;" vertex="1" parent="1">
          <mxGeometry x="405" y="248" width="50" height="30" as="geometry" />
        </mxCell>
        <mxCell id="fykf_wIM20lNiPWr6jBC-30" value="Sai" style="text;html=1;align=center;verticalAlign=middle;resizable=0;points=[];autosize=1;strokeColor=none;fillColor=none;" vertex="1" parent="1">
          <mxGeometry x="270" y="168" width="40" height="30" as="geometry" />
        </mxCell>
        <mxCell id="fykf_wIM20lNiPWr6jBC-31" value="Đúng" style="text;html=1;align=center;verticalAlign=middle;resizable=0;points=[];autosize=1;strokeColor=none;fillColor=none;" vertex="1" parent="1">
          <mxGeometry x="405" y="518" width="50" height="30" as="geometry" />
        </mxCell>
        <mxCell id="fykf_wIM20lNiPWr6jBC-32" value="Sai" style="text;html=1;align=center;verticalAlign=middle;resizable=0;points=[];autosize=1;strokeColor=none;fillColor=none;" vertex="1" parent="1">
          <mxGeometry x="490" y="445" width="40" height="30" as="geometry" />
        </mxCell>
        <mxCell id="fykf_wIM20lNiPWr6jBC-33" value="" style="endArrow=classic;html=1;rounded=0;exitX=0.5;exitY=0;exitDx=0;exitDy=0;entryX=0;entryY=0.5;entryDx=0;entryDy=0;" edge="1" parent="1" source="fykf_wIM20lNiPWr6jBC-6" target="fykf_wIM20lNiPWr6jBC-3">
          <mxGeometry width="50" height="50" relative="1" as="geometry">
            <mxPoint x="330" y="680" as="sourcePoint" />
            <mxPoint x="380" y="630" as="targetPoint" />
            <Array as="points">
              <mxPoint x="160" y="475" />
            </Array>
          </mxGeometry>
        </mxCell>
        <mxCell id="fykf_wIM20lNiPWr6jBC-34" value="Đúng" style="text;html=1;align=center;verticalAlign=middle;resizable=0;points=[];autosize=1;strokeColor=none;fillColor=none;" vertex="1" parent="1">
          <mxGeometry x="400" y="688" width="50" height="30" as="geometry" />
        </mxCell>
        <mxCell id="fykf_wIM20lNiPWr6jBC-35" value="" style="endArrow=classic;html=1;rounded=0;exitX=0;exitY=0.5;exitDx=0;exitDy=0;entryX=1;entryY=0.5;entryDx=0;entryDy=0;" edge="1" parent="1" source="fykf_wIM20lNiPWr6jBC-4" target="fykf_wIM20lNiPWr6jBC-6">
          <mxGeometry width="50" height="50" relative="1" as="geometry">
            <mxPoint x="340" y="690" as="sourcePoint" />
            <mxPoint x="390" y="640" as="targetPoint" />
          </mxGeometry>
        </mxCell>
        <mxCell id="fykf_wIM20lNiPWr6jBC-36" value="Sai" style="text;html=1;align=center;verticalAlign=middle;resizable=0;points=[];autosize=1;strokeColor=none;fillColor=none;" vertex="1" parent="1">
          <mxGeometry x="270" y="590" width="40" height="30" as="geometry" />
        </mxCell>
      </root>
    </mxGraphModel>
  </diagram>
</mxfile>
